<svg id="РЎР»РѕР№_1" data-name="РЎР»РѕР№ 1" xmlns="http://www.w3.org/2000/svg" viewBox="0 0 128.19 128.25"><defs><style>.cls-1{fill:#22c55e;}</style></defs><path class="cls-1" d="M128,72.52c0-15.18-.07-30.35-.51-45.5a30,30,0,0,0-2.78-11.5C120.05,5.54,111.59.7,100.84.22,90.25-.25,79.63-.26,69-.24,55-.23,41-.14,27,.26A29,29,0,0,0,16.42,2.64C6,7.18.87,15.7.27,26.8-.22,35.89-.22,45-.2,54.13c0,15.53.08,31.06.52,46.58A29.74,29.74,0,0,0,3.09,112.2c4.65,10,13.11,14.92,23.86,15.28,13.28.65,24.49.47,36.74.47,9.39,0,18.78.1,28.19,0,6.19,0,12.48,0,18.32-2.35,11.09-4.39,16.66-13,17.31-24.7C128,91.47,128,82,128,72.52ZM115.64,91.33a91.89,91.89,0,0,1-1.7,11.86c-.34,1.32-3,2.89-4.59,2.93-9.5.25-19,.15-29.21.14a2,2,0,0,1-2-2V40.75H54.76c0,8.44.11,16.67,0,24.91-.13,7.27.15,14.66-1,21.8-2.44,15.61-14.7,25.41-34.44,21a8,8,0,0,1-4.93-5,91.33,91.33,0,0,1-1.66-12.8,2,2,0,0,1,2.6-2.13c2.55.76,4.6,1.32,6.68,1.76,9.41,2,13.76-4.11,14-11.66.36-11.47.07-23,.07-35-9.51.19-15.15,5.66-20.57,12.39a2,2,0,0,1-3.6-1.25c-.05-5.34-.11-10.07.19-14.77.11-1.74,1.91-3.61,3.34-5A40.94,40.94,0,0,1,42,23.16c12.46-.73,25-1,37.47-.85,9.66.12,18.79-.93,27.25-7.3a2.48,2.48,0,0,1,3.51.56,37.38,37.38,0,0,1,3.29,5.19c3.29,6.93,2.23,10.31-4.53,14-3.62,2-7.53,3.42-11.84,5.34V87.07a2,2,0,0,0,2,2h14.44A2,2,0,0,1,115.64,91.33Z" transform="translate(0.2 0.25)"/></svg>