<svg version="1.1" id="polyLogo" xmlns="http://www.w3.org/2000/svg" x="0px" y="0px"
	 viewBox="0 1.5 74 74" xml:space="preserve">
<style type="text/css">
	.st0{fill:#37B34A;}
</style>
<path id="polytechLogo" class="st0" d="M59.951,12.493c1.473,0.631,3.997,4.418,3.436,8.556c-2.875,2.314-6.312,3.927-9.608,4.418
	v26.368h9.818c0,4.067-0.631,7.293-1.332,8.486H44.313V25.887H31.83v20.548c0,10.379-5.821,15.428-13.254,15.428
	c-2.104,0-4.558-0.281-6.732-0.912c-0.982-1.332-1.473-5.33-1.613-10.309c4.909,2.384,11.641,3.506,12.202-4.208V27.22
	c-7.504,0.771-10.239,6.031-12.834,9.538c0.07-4.699,0.281-8.976,0.561-11.852c5.119-5.54,10.87-8.135,22.231-8.135h16.2
	C52.518,16.841,56.375,15.368,59.951,12.493 M36.879,4.989c-14.587,0-20.478,0.912-20.478,0.912
	C10.16,6.181,5.742,10.459,5.111,17.752c0,0-1.052,9.537-1.052,20.618s1.052,20.618,1.052,20.618
	c0.631,7.293,5.049,11.641,11.291,11.852c0,0,5.891,0.912,20.478,0.912s20.478-0.912,20.478-0.912
	c6.241-0.281,10.66-4.558,11.291-11.852c0,0,1.052-9.187,1.052-20.618c0-11.01-1.052-20.618-1.052-20.618
	c-0.631-7.293-5.049-11.641-11.291-11.852C57.357,5.83,51.466,4.989,36.879,4.989"/>
</svg>
